HIERARCHY
ROOT newVegas:Hips
{
	OFFSET 0.000000 96.479958 0.000000
	CHANNELS 6 Xposition Yposition Zposition Xrotation Yrotation Zrotation
	JOINT newVegas:Pelvis
	{
		OFFSET 0.000000 0.000000 0.000000
		CHANNELS 3 Xrotation Yrotation Zrotation
		JOINT newVegas:LeftUpLeg
		{
			OFFSET 18.735201 -5.666702 -4.541200
			CHANNELS 3 Xrotation Yrotation Zrotation
			JOINT newVegas:LeftLeg
			{
				OFFSET -0.021200 -31.938179 0.493100
				CHANNELS 3 Xrotation Yrotation Zrotation
				JOINT newVegas:LeftFoot
				{
					OFFSET 0.021200 -31.938179 -4.336299
					CHANNELS 3 Xrotation Yrotation Zrotation
					JOINT newVegas:LeftToeBase
					{
						OFFSET 0.943001 -26.722000 15.023500
						CHANNELS 3 Xrotation Yrotation Zrotation
						End Site
						{
							OFFSET 0.000000 30.670183 0.000000
						}
					}
				}
				JOINT newVegas:Left_PantLeg
				{
					OFFSET 0.663870 -9.044666 -1.108900
					CHANNELS 3 Xrotation Yrotation Zrotation
					End Site
					{
						OFFSET 1.415995 20.635357 0.000000
					}
				}
			}
		}
		JOINT newVegas:RightUpLeg
		{
			OFFSET -18.735201 -5.666702 -4.541200
			CHANNELS 3 Xrotation Yrotation Zrotation
			JOINT newVegas:RightLeg
			{
				OFFSET 0.018946 -31.938133 0.493100
				CHANNELS 3 Xrotation Yrotation Zrotation
				JOINT newVegas:RightFoot
				{
					OFFSET -0.018946 -31.938126 -4.336299
					CHANNELS 3 Xrotation Yrotation Zrotation
					JOINT newVegas:RightToeBase
					{
						OFFSET -0.943001 -26.722004 15.023500
						CHANNELS 3 Xrotation Yrotation Zrotation
						End Site
						{
							OFFSET 0.000000 30.670187 0.000000
						}
					}
				}
				JOINT newVegas:Right_PantLeg
				{
					OFFSET -0.661674 -9.044716 -1.108900
					CHANNELS 3 Xrotation Yrotation Zrotation
					End Site
					{
						OFFSET -1.415958 20.635269 0.000000
					}
				}
			}
		}
	}
	JOINT newVegas:Spine
	{
		OFFSET 0.000000 10.199997 -0.299500
		CHANNELS 3 Xrotation Yrotation Zrotation
		JOINT newVegas:Spine1
		{
			OFFSET 0.000000 11.900002 -1.516600
			CHANNELS 3 Xrotation Yrotation Zrotation
			JOINT newVegas:Spine2
			{
				OFFSET 0.000000 13.600006 -2.842500
				CHANNELS 3 Xrotation Yrotation Zrotation
				JOINT newVegas:Neck
				{
					OFFSET 0.000000 9.624100 -2.890100
					CHANNELS 3 Xrotation Yrotation Zrotation
					JOINT newVegas:Head
					{
						OFFSET 0.000000 14.068802 -1.351900
						CHANNELS 3 Xrotation Yrotation Zrotation
						JOINT newVegas:Hair_Back
						{
							OFFSET 0.000000 3.231903 -17.524799
							CHANNELS 3 Xrotation Yrotation Zrotation
							End Site
							{
								OFFSET 0.000000 19.849884 0.000000
							}
						}
						JOINT newVegas:Hair_Front
						{
							OFFSET 0.000000 31.260406 4.573800
							CHANNELS 3 Xrotation Yrotation Zrotation
							JOINT newVegas:Hair_Front1
							{
								OFFSET 0.000000 2.284103 11.993300
								CHANNELS 3 Xrotation Yrotation Zrotation
								JOINT newVegas:Hair_Front2
								{
									OFFSET 0.000000 2.284103 11.993300
									CHANNELS 3 Xrotation Yrotation Zrotation
									End Site
									{
										OFFSET 0.000000 12.208862 0.000000
									}
								}
							}
						}
						JOINT newVegas:Jowel
						{
							OFFSET 0.000000 -7.458206 6.864100
							CHANNELS 3 Xrotation Yrotation Zrotation
							End Site
							{
								OFFSET 0.000000 19.849884 0.000000
							}
						}
					}
				}
				JOINT newVegas:LeftShoulder
				{
					OFFSET 15.263000 10.923401 -0.547700
					CHANNELS 3 Xrotation Yrotation Zrotation
					JOINT newVegas:LeftArm
					{
						OFFSET 25.438599 -2.830597 -13.032500
						CHANNELS 3 Xrotation Yrotation Zrotation
						JOINT newVegas:LeftForeArm
						{
							OFFSET 29.960503 0.000000 0.000000
							CHANNELS 3 Xrotation Yrotation Zrotation
							JOINT newVegas:LeftHand
							{
								OFFSET 27.849251 0.000000 0.000000
								CHANNELS 3 Xrotation Yrotation Zrotation
								JOINT newVegas:LeftHandThumb1
								{
									OFFSET 4.487587 -3.305161 6.305391
									CHANNELS 3 Xrotation Yrotation Zrotation
									JOINT newVegas:LeftHandThumb2
									{
										OFFSET 5.480453 -3.164139 3.164143
										CHANNELS 3 Xrotation Yrotation Zrotation
										JOINT newVegas:LeftHandThumb3
										{
											OFFSET 5.159721 -2.978973 2.978967
											CHANNELS 3 Xrotation Yrotation Zrotation
											End Site
											{
												OFFSET 2.494507 5.926697 1.738678
											}
										}
									}
								}
								JOINT newVegas:LeftHandIndex1
								{
									OFFSET 18.578728 -0.527832 5.208049
									CHANNELS 3 Xrotation Yrotation Zrotation
									JOINT newVegas:LeftHandIndex2
									{
										OFFSET 3.192009 0.000000 0.000000
										CHANNELS 3 Xrotation Yrotation Zrotation
										JOINT newVegas:LeftHandIndex3
										{
											OFFSET 3.835129 0.000000 0.000000
											CHANNELS 3 Xrotation Yrotation Zrotation
											End Site
											{
												OFFSET -0.034599 3.816971 0.371180
											}
										}
									}
								}
								JOINT newVegas:LeftHandMiddle1
								{
									OFFSET 18.476105 0.000000 0.000000
									CHANNELS 3 Xrotation Yrotation Zrotation
									JOINT newVegas:LeftHandMiddle2
									{
										OFFSET 3.324875 0.000000 0.000000
										CHANNELS 3 Xrotation Yrotation Zrotation
										JOINT newVegas:LeftHandMiddle3
										{
											OFFSET 4.596550 0.000000 0.000000
											CHANNELS 3 Xrotation Yrotation Zrotation
											End Site
											{
												OFFSET 0.057701 4.578827 0.399218
											}
										}
									}
								}
								JOINT newVegas:LeftHandRing1
								{
									OFFSET 17.732719 0.121887 -4.201567
									CHANNELS 3 Xrotation Yrotation Zrotation
									JOINT newVegas:LeftHandRing2
									{
										OFFSET 2.733170 0.000000 0.000000
										CHANNELS 3 Xrotation Yrotation Zrotation
										JOINT newVegas:LeftHandRing3
										{
											OFFSET 3.178268 0.000000 0.000000
											CHANNELS 3 Xrotation Yrotation Zrotation
											End Site
											{
												OFFSET 0.119102 3.170624 0.185394
											}
										}
									}
								}
								JOINT newVegas:LeftHandPinky1
								{
									OFFSET 15.989624 -0.606689 -7.535461
									CHANNELS 3 Xrotation Yrotation Zrotation
									JOINT newVegas:LeftHandPinky2
									{
										OFFSET 2.538986 0.000000 0.000000
										CHANNELS 3 Xrotation Yrotation Zrotation
										JOINT newVegas:LeftHandPinky3
										{
											OFFSET 2.593102 0.000000 0.000000
											CHANNELS 3 Xrotation Yrotation Zrotation
											End Site
											{
												OFFSET -0.150902 2.584198 0.152708
											}
										}
									}
								}
							}
							JOINT newVegas:Left_Sleeve
							{
								OFFSET 0.267448 -0.649796 0.577675
								CHANNELS 3 Xrotation Yrotation Zrotation
								End Site
								{
									OFFSET 0.000000 15.991241 0.000000
								}
							}
							JOINT newVegas:Left_CapeC
							{
								OFFSET 15.715958 -8.608795 -6.935905
								CHANNELS 3 Xrotation Yrotation Zrotation
								JOINT newVegas:Left_CapeC1
								{
									OFFSET 0.000000 -8.688499 0.000000
									CHANNELS 3 Xrotation Yrotation Zrotation
									End Site
									{
										OFFSET 0.000000 8.688499 0.000000
									}
								}
							}
						}
						JOINT newVegas:Left_CapeB
						{
							OFFSET 26.118385 -8.608795 -7.079235
							CHANNELS 3 Xrotation Yrotation Zrotation
							JOINT newVegas:Left_CapeB1
							{
								OFFSET 0.000000 -8.688499 0.000000
								CHANNELS 3 Xrotation Yrotation Zrotation
								End Site
								{
									OFFSET 0.000000 8.688499 0.000000
								}
							}
						}
						JOINT newVegas:Left_CapeA
						{
							OFFSET 5.115639 -8.608795 -10.395809
							CHANNELS 3 Xrotation Yrotation Zrotation
							JOINT newVegas:Left_CapeA1
							{
								OFFSET 0.000000 -8.688499 0.000000
								CHANNELS 3 Xrotation Yrotation Zrotation
								End Site
								{
									OFFSET 0.000000 8.688499 0.000000
								}
							}
						}
					}
				}
				JOINT newVegas:RightShoulder
				{
					OFFSET -15.263000 10.923401 -0.547700
					CHANNELS 3 Xrotation Yrotation Zrotation
					JOINT newVegas:RightArm
					{
						OFFSET -25.438599 -2.830597 -13.032500
						CHANNELS 3 Xrotation Yrotation Zrotation
						JOINT newVegas:RightForeArm
						{
							OFFSET -29.960503 0.000000 0.000000
							CHANNELS 3 Xrotation Yrotation Zrotation
							JOINT newVegas:RightHand
							{
								OFFSET -27.849251 0.000000 0.000000
								CHANNELS 3 Xrotation Yrotation Zrotation
								JOINT newVegas:RightHandThumb1
								{
									OFFSET -4.487587 -3.305161 6.305391
									CHANNELS 3 Xrotation Yrotation Zrotation
									JOINT newVegas:RightHandThumb2
									{
										OFFSET -5.480453 -3.164139 3.164143
										CHANNELS 3 Xrotation Yrotation Zrotation
										JOINT newVegas:RightHandThumb3
										{
											OFFSET -5.159721 -2.978973 2.978967
											CHANNELS 3 Xrotation Yrotation Zrotation
											End Site
											{
												OFFSET -2.494507 5.926697 1.738678
											}
										}
									}
								}
								JOINT newVegas:RightHandIndex1
								{
									OFFSET -18.578728 -0.527832 5.208049
									CHANNELS 3 Xrotation Yrotation Zrotation
									JOINT newVegas:RightHandIndex2
									{
										OFFSET -3.192009 0.000000 0.000000
										CHANNELS 3 Xrotation Yrotation Zrotation
										JOINT newVegas:RightHandIndex3
										{
											OFFSET -3.835129 0.000000 0.000000
											CHANNELS 3 Xrotation Yrotation Zrotation
											End Site
											{
												OFFSET 0.034599 3.816971 0.371180
											}
										}
									}
								}
								JOINT newVegas:RightHandMiddle1
								{
									OFFSET -18.476105 0.000000 0.000000
									CHANNELS 3 Xrotation Yrotation Zrotation
									JOINT newVegas:RightHandMiddle2
									{
										OFFSET -3.324875 0.000000 0.000000
										CHANNELS 3 Xrotation Yrotation Zrotation
										JOINT newVegas:RightHandMiddle3
										{
											OFFSET -4.596550 0.000000 0.000000
											CHANNELS 3 Xrotation Yrotation Zrotation
											End Site
											{
												OFFSET -0.057701 4.578827 0.399218
											}
										}
									}
								}
								JOINT newVegas:RightHandRing1
								{
									OFFSET -17.732719 0.121887 -4.201567
									CHANNELS 3 Xrotation Yrotation Zrotation
									JOINT newVegas:RightHandRing2
									{
										OFFSET -2.733170 0.000000 0.000000
										CHANNELS 3 Xrotation Yrotation Zrotation
										JOINT newVegas:RightHandRing3
										{
											OFFSET -3.178268 0.000000 0.000000
											CHANNELS 3 Xrotation Yrotation Zrotation
											End Site
											{
												OFFSET -0.119102 3.170624 0.185394
											}
										}
									}
								}
								JOINT newVegas:RightHandPinky1
								{
									OFFSET -15.989624 -0.606689 -7.535461
									CHANNELS 3 Xrotation Yrotation Zrotation
									JOINT newVegas:RightHandPinky2
									{
										OFFSET -2.538986 0.000000 0.000000
										CHANNELS 3 Xrotation Yrotation Zrotation
										JOINT newVegas:RightHandPinky3
										{
											OFFSET -2.593102 0.000000 0.000000
											CHANNELS 3 Xrotation Yrotation Zrotation
											End Site
											{
												OFFSET 0.150902 2.584198 0.152708
											}
										}
									}
								}
							}
							JOINT newVegas:Right_CapeC
							{
								OFFSET -15.715958 -8.608795 -6.935905
								CHANNELS 3 Xrotation Yrotation Zrotation
								JOINT newVegas:Right_CapeC1
								{
									OFFSET 0.000000 -8.688499 0.000000
									CHANNELS 3 Xrotation Yrotation Zrotation
									End Site
									{
										OFFSET 0.000000 8.688499 0.000000
									}
								}
							}
							JOINT newVegas:Right_Sleeve
							{
								OFFSET -0.267448 -0.649994 0.577675
								CHANNELS 3 Xrotation Yrotation Zrotation
								End Site
								{
									OFFSET 0.000000 15.991302 0.000000
								}
							}
						}
						JOINT newVegas:Right_CapeA
						{
							OFFSET -5.115540 -8.608795 -10.395824
							CHANNELS 3 Xrotation Yrotation Zrotation
							JOINT newVegas:Right_CapeA1
							{
								OFFSET 0.000000 -8.688499 0.000000
								CHANNELS 3 Xrotation Yrotation Zrotation
								End Site
								{
									OFFSET 0.000000 8.688499 0.000000
								}
							}
						}
						JOINT newVegas:Right_CapeB
						{
							OFFSET -26.118187 -8.608795 -7.079266
							CHANNELS 3 Xrotation Yrotation Zrotation
							JOINT newVegas:Right_CapeB1
							{
								OFFSET 0.000000 -8.688499 0.000000
								CHANNELS 3 Xrotation Yrotation Zrotation
								End Site
								{
									OFFSET 0.000000 8.688499 0.000000
								}
							}
						}
					}
				}
				JOINT newVegas:Left_Collar
				{
					OFFSET 18.625099 8.655502 8.828100
					CHANNELS 3 Xrotation Yrotation Zrotation
					JOINT newVegas:Left_Collar1
					{
						OFFSET 14.783401 10.540405 -1.259500
						CHANNELS 3 Xrotation Yrotation Zrotation
						End Site
						{
							OFFSET 0.000000 18.199875 0.000000
						}
					}
				}
				JOINT newVegas:Collar_Back
				{
					OFFSET 0.000000 15.630707 -20.132601
					CHANNELS 3 Xrotation Yrotation Zrotation
					End Site
					{
						OFFSET 0.000000 22.523010 0.000000
					}
				}
				JOINT newVegas:Left_Peck
				{
					OFFSET 17.239599 -5.132599 25.482599
					CHANNELS 3 Xrotation Yrotation Zrotation
					End Site
					{
						OFFSET 0.000000 22.523010 0.000000
					}
				}
				JOINT newVegas:Right_Peck
				{
					OFFSET -17.239599 -5.132202 25.482599
					CHANNELS 3 Xrotation Yrotation Zrotation
					End Site
					{
						OFFSET 0.000000 22.523010 0.000000
					}
				}
				JOINT newVegas:Right_Collar
				{
					OFFSET -18.625099 8.655792 8.828100
					CHANNELS 3 Xrotation Yrotation Zrotation
					JOINT newVegas:Right_Collar1
					{
						OFFSET -14.783401 10.539993 -1.259500
						CHANNELS 3 Xrotation Yrotation Zrotation
						End Site
						{
							OFFSET 0.000000 18.199631 0.000000
						}
					}
				}
			}
		}
		JOINT newVegas:Belly
		{
			OFFSET 0.000000 -6.540398 9.014299
			CHANNELS 3 Xrotation Yrotation Zrotation
			End Site
			{
				OFFSET 0.000000 11.566666 0.000000
			}
		}
	}
	JOINT newVegas:ElvisFacialAnim_Joint
	{
		OFFSET 1.000000 -95.330101 -8.825800
		CHANNELS 3 Xrotation Yrotation Zrotation
		End Site
		{
			OFFSET 0.000000 35.315800 0.000000
		}
	}
}
MOTION
Frames: 4
Frame Time: 0.033333
-4.491780 82.705475 3.207508 8.786792 -64.538157 11.324219 -0.000000 0.000000 0.000000 -60.927036 -6.662224 -7.074815 78.093555 1.762059 5.845715 9.822730 -0.032811 -2.447217 0.000004 0.000001 -0.000001 -0.000000 0.000000 0.000001 -32.586805 -21.856201 -3.933740 69.016569 8.986742 0.523671 -41.964836 -15.993127 -16.449167 0.000000 -0.000000 0.000000 0.000001 0.000000 -0.000000 14.380372 8.934980 2.059169 3.250452 2.428484 3.388208 3.085100 2.750392 3.354479 -1.189287 1.439586 2.031084 -1.189299 1.439575 2.031078 -0.000001 -0.000001 0.000000 -1.189340 1.439604 2.031089 -1.189201 1.439604 2.031073 -0.000001 0.000002 -0.000001 -0.000001 -0.000001 0.000001 0.638819 -5.475698 -6.833103 -48.617669 -3.985152 -46.240135 0.000127 -84.867764 0.000162 -135.104106 -17.909169 24.609610 4.709229 9.560372 3.111992 19.473189 -1.474918 7.636915 0.000003 -0.000000 -0.000003 -0.212820 3.933720 -36.747121 2.942141 5.078903 -60.144583 -0.000003 -0.000000 -0.000000 0.405916 5.507025 -52.453162 3.387147 5.308597 -65.057477 -0.000002 -0.000002 0.000002 -0.074381 5.736769 -61.061420 4.055032 5.569492 -72.094928 -0.000000 -0.000001 -0.000001 -6.565542 4.545155 -72.425209 3.299599 5.267196 -64.107828 -0.000002 -0.000005 0.000001 -0.000001 0.000002 -0.000001 -0.000001 0.000002 -0.000001 -0.000002 0.000002 -0.000001 -0.000001 -0.000002 0.000001 -0.000001 -0.000003 0.000001 -0.000001 -0.000002 0.000001 -0.000001 -0.000001 0.000001 3.879581 8.951750 -4.531421 -49.689411 48.826365 72.453294 0.000339 108.431234 -0.000320 -39.639542 -37.296511 -16.729929 8.377125 -4.904151 11.021997 21.620201 -18.183885 -18.379204 0.000000 -0.000002 0.000003 -0.920047 1.683561 12.434978 0.748122 -2.533461 32.898286 -0.000000 0.000000 0.000002 3.413056 -7.186267 51.650246 6.296792 -4.359554 110.634667 0.000000 -0.000001 0.000001 -3.349040 -2.600419 57.010564 5.440866 -4.590880 99.698181 0.000001 0.000001 0.000000 -3.996435 -3.303962 64.593837 4.058819 -4.618620 82.610530 0.000000 0.000003 0.000003 -0.000000 0.000003 -0.000002 -0.000000 0.000001 -0.000000 -0.000000 0.000002 -0.000001 -0.000001 -0.000001 -0.000003 -0.000001 0.000000 -0.000001 -0.000001 -0.000001 -0.000003 -0.000001 -0.000000 -0.000001 -0.000001 -0.000002 0.000001 -0.000001 -0.000002 0.000001 -0.000001 -0.000002 0.000001 -0.000001 -0.000002 0.000001 -0.000001 -0.000002 0.000001 -0.000001 -0.000002 0.000001 -0.000001 -0.000002 0.000001 -0.000001 0.000004 -0.000001 -0.000000 0.000000 0.000000 
-14.570633 83.968033 2.495994 11.222878 -64.411648 14.433505 0.000000 0.000001 -0.000000 -61.741611 -2.006042 -5.993656 65.563928 3.396556 4.296092 3.584414 0.113439 -3.136041 0.000001 0.000000 -0.000000 0.000000 -0.000000 0.000000 -20.491442 -24.561205 -1.834573 60.835259 9.277082 2.403359 -42.049824 -14.908655 -15.274045 0.000001 -0.000000 0.000000 0.000003 0.000001 -0.000000 14.402767 9.866272 0.610818 3.102103 2.745060 2.996773 2.927453 3.046627 2.954048 -1.575562 1.418236 1.923978 -1.575563 1.418251 1.923967 -0.000001 0.000000 0.000001 -1.575558 1.418248 1.923981 -1.575484 1.418237 1.923967 -0.000001 -0.000000 0.000002 -0.000001 0.000000 0.000001 0.653817 -6.103425 -6.861211 -48.864795 -4.795159 -45.100593 -0.000006 -84.574961 -0.000000 -135.697431 -17.542876 24.300601 4.709227 9.560372 3.111989 19.473189 -1.474910 7.636914 0.000003 0.000002 -0.000001 -0.212819 3.933715 -36.747114 2.942139 5.078903 -60.144583 -0.000006 -0.000001 -0.000001 0.405917 5.507024 -52.453162 3.387153 5.308595 -65.057477 -0.000002 0.000000 -0.000001 -0.074378 5.736766 -61.061420 4.055040 5.569489 -72.094928 0.000003 0.000001 0.000001 -6.565543 4.545157 -72.425209 3.299604 5.267191 -64.107828 -0.000000 -0.000003 0.000002 0.000003 0.000002 -0.000001 0.000003 0.000002 -0.000001 0.000002 0.000002 -0.000001 -0.000000 -0.000002 0.000001 -0.000001 -0.000003 -0.000000 -0.000000 -0.000002 0.000001 -0.000000 -0.000002 0.000001 3.874802 7.545336 -5.446482 -49.896403 49.430352 73.469135 0.000233 108.512807 -0.000238 -39.880996 -35.644210 -18.394563 8.377125 -4.904149 11.021998 21.620202 -18.183890 -18.379211 0.000000 -0.000003 0.000001 -0.920047 1.683561 12.434978 0.748122 -2.533460 32.898286 -0.000001 0.000000 0.000004 3.413056 -7.186268 51.650249 6.296791 -4.359553 110.634667 -0.000000 -0.000000 -0.000000 -3.349043 -2.600420 57.010558 5.440863 -4.590882 99.698174 0.000000 0.000002 -0.000002 -3.996437 -3.303965 64.593837 4.058816 -4.618618 82.610530 0.000001 0.000003 0.000004 -0.000000 0.000001 -0.000001 0.000000 -0.000003 -0.000001 -0.000000 0.000001 -0.000001 0.000002 0.000001 -0.000001 0.000002 0.000002 -0.000001 0.000002 0.000001 -0.000001 0.000002 0.000002 -0.000002 0.000001 -0.000004 0.000001 0.000001 -0.000004 0.000001 0.000001 -0.000004 0.000001 0.000001 -0.000004 0.000001 0.000001 -0.000004 0.000001 0.000001 -0.000004 0.000001 0.000001 -0.000004 0.000001 -0.000000 -0.000000 -0.000000 0.000000 0.000001 -0.000000 
-24.840269 85.235031 1.681232 12.966371 -64.068021 16.565502 0.000000 -0.000001 -0.000000 -57.744694 1.599488 -4.753957 47.189647 4.521075 1.937469 -2.918010 0.749228 -8.379607 0.000000 -0.000001 -0.000000 0.000000 -0.000001 0.000001 -7.947067 -25.184174 2.980437 49.887886 8.306167 2.636597 -36.735254 -16.119981 -12.793939 0.000000 -0.000000 0.000000 -0.000001 0.000002 -0.000000 14.394496 10.389435 -0.982413 2.890176 2.930904 2.509248 2.719505 3.206509 2.453775 -1.920839 1.431730 1.722278 -1.920834 1.431719 1.722278 -0.000000 0.000001 -0.000001 -1.920837 1.431749 1.722273 -1.920842 1.431710 1.722288 0.000001 0.000002 0.000000 -0.000000 0.000001 -0.000001 0.664228 -6.544400 -6.878931 -49.346532 -5.413101 -44.246795 -0.000018 -84.459387 0.000062 -135.443006 -16.754881 24.903134 4.709226 9.560368 3.111992 19.473185 -1.474912 7.636913 0.000006 -0.000000 -0.000003 -0.212819 3.933710 -36.747121 2.942139 5.078902 -60.144583 -0.000004 -0.000001 0.000000 0.405916 5.507018 -52.453162 3.387151 5.308594 -65.057477 -0.000004 -0.000001 -0.000001 -0.074381 5.736765 -61.061420 4.055036 5.569495 -72.094928 0.000001 -0.000001 -0.000000 -6.565541 4.545151 -72.425215 3.299603 5.267194 -64.107828 -0.000002 -0.000005 -0.000001 0.000001 0.000000 0.000001 0.000001 0.000000 0.000001 -0.000000 0.000000 0.000001 -0.000003 -0.000003 0.000003 -0.000003 -0.000003 0.000003 -0.000003 -0.000003 0.000003 -0.000003 -0.000002 0.000003 3.859546 6.566904 -5.925219 -49.696426 49.790556 74.395288 0.000368 108.940042 -0.000370 -40.087214 -34.253969 -20.423002 8.377122 -4.904148 11.021999 21.620201 -18.183885 -18.379206 -0.000001 0.000000 0.000001 -0.920047 1.683561 12.434978 0.748121 -2.533459 32.898282 -0.000000 0.000000 0.000002 3.413056 -7.186267 51.650253 6.296792 -4.359553 110.634667 -0.000000 -0.000000 0.000000 -3.349038 -2.600418 57.010564 5.440864 -4.590881 99.698181 0.000000 0.000002 0.000000 -3.996433 -3.303964 64.593837 4.058818 -4.618623 82.610523 0.000000 -0.000000 0.000003 -0.000001 0.000000 0.000002 -0.000000 -0.000004 0.000002 -0.000001 0.000000 0.000003 -0.000001 0.000002 -0.000001 -0.000001 0.000003 -0.000000 -0.000001 0.000002 -0.000001 -0.000001 0.000003 -0.000001 0.000001 -0.000001 0.000000 0.000001 -0.000001 0.000000 0.000001 -0.000001 0.000000 0.000001 -0.000001 0.000000 0.000001 -0.000001 0.000000 0.000001 -0.000001 0.000000 0.000001 -0.000001 0.000000 -0.000001 0.000003 -0.000001 0.000000 -0.000001 -0.000000 
-35.681793 85.976974 1.103725 14.315850 -63.834948 17.409756 0.000000 0.000000 0.000000 -50.966008 4.581381 -4.713547 26.425766 5.757630 -1.067859 -7.397285 3.247320 -11.744879 0.000002 -0.000001 0.000001 -0.000001 -0.000002 -0.000000 2.589756 -22.838153 8.670573 38.800478 2.760937 1.178268 -23.491804 -16.476091 -5.425272 0.000003 -0.000001 0.000000 -0.000002 0.000000 -0.000000 13.824416 10.993811 -1.970917 2.373062 3.056686 2.122760 2.209297 3.302328 2.042405 -2.207391 1.456012 1.500247 -2.207397 1.456006 1.500240 -0.000000 0.000002 -0.000002 -2.207315 1.456048 1.500226 -2.207486 1.455973 1.500243 -0.000001 -0.000001 0.000003 -0.000000 0.000002 0.000000 0.673226 -7.072498 -7.004448 -49.661735 -5.961708 -43.678185 0.000184 -84.148620 0.000222 -134.894993 -15.831817 25.901766 4.709227 9.560369 3.111990 19.473185 -1.474910 7.636916 0.000002 -0.000000 -0.000005 -0.212820 3.933712 -36.747121 2.942141 5.078905 -60.144583 0.000002 0.000000 -0.000000 0.405917 5.507024 -52.453162 3.387149 5.308595 -65.057477 -0.000000 -0.000001 0.000001 -0.074377 5.736769 -61.061427 4.055033 5.569495 -72.094928 -0.000003 -0.000001 -0.000001 -6.565541 4.545155 -72.425215 3.299601 5.267190 -64.107828 -0.000001 -0.000005 -0.000003 -0.000001 0.000000 -0.000000 -0.000001 0.000000 -0.000000 -0.000002 0.000000 0.000000 -0.000001 -0.000002 0.000003 -0.000001 -0.000003 0.000003 -0.000001 -0.000002 0.000003 -0.000001 -0.000001 0.000002 3.841627 5.725979 -6.229997 -49.209098 49.935052 75.186237 0.000004 109.382741 -0.000002 -40.543771 -33.340923 -22.459153 8.377123 -4.904150 11.021997 21.620199 -18.183879 -18.379204 -0.000003 -0.000003 0.000001 -0.920047 1.683562 12.434977 0.748122 -2.533460 32.898286 -0.000001 -0.000000 0.000002 3.413055 -7.186267 51.650246 6.296790 -4.359554 110.634660 -0.000000 -0.000000 0.000001 -3.349038 -2.600422 57.010561 5.440863 -4.590882 99.698181 -0.000000 0.000001 0.000001 -3.996435 -3.303965 64.593837 4.058818 -4.618624 82.610523 0.000000 -0.000000 0.000000 -0.000001 0.000003 -0.000001 -0.000001 -0.000001 -0.000001 -0.000001 0.000002 -0.000002 -0.000000 -0.000004 0.000001 -0.000000 -0.000003 0.000001 -0.000000 -0.000004 0.000001 0.000000 -0.000003 0.000001 0.000001 0.000002 -0.000000 0.000001 0.000002 -0.000000 0.000001 0.000002 -0.000000 0.000001 0.000002 -0.000000 0.000001 0.000002 -0.000000 0.000001 0.000002 -0.000000 0.000001 0.000002 -0.000000 0.000001 -0.000001 -0.000000 0.000000 0.000000 0.000000 
